<?xml version="1.0" standalone="no"?><!DOCTYPE svg PUBLIC "-//W3C//DTD SVG 1.1//EN" "http://www.w3.org/Graphics/SVG/1.1/DTD/svg11.dtd"><svg t="1592985993129" class="icon" viewBox="0 0 1024 1024" version="1.1" xmlns="http://www.w3.org/2000/svg" p-id="2688" xmlns:xlink="http://www.w3.org/1999/xlink" width="200" height="200"><defs><style type="text/css"></style></defs><path d="M504.718222 1010.176C225.943704 1010.176 0 784.213333 0 505.438815 0 226.645333 226.057481 0.815407 504.718222 0.815407c278.679704 0 504.756148 225.943704 504.756148 504.737186 0 278.774519-225.962667 504.623407-504.756148 504.623407z m48.886519-830.27437a48.924444 48.924444 0 0 0-48.886519-48.886519 48.924444 48.924444 0 0 0-48.886518 48.886519v293.091555a48.924444 48.924444 0 0 0 48.886518 48.886519 48.924444 48.924444 0 0 0 48.886519-48.886519V179.90163zM800.995556 276.66963c-49.000296-63.29837-115.90163 0.663704-66.23763 74.789926s46.857481 96.976593 46.857481 153.979259c0 152.841481-123.904 276.764444-276.764444 276.764444-152.841481 0-276.745481-123.904-276.745482-276.764444 0-56.661333-3.451259-78.506667 46.402371-153.296593 49.872593-74.808889-17.673481-137.993481-66.351408-74.808889-48.658963 63.203556-77.937778 142.165333-77.937777 228.105482 0 206.923852 167.727407 374.632296 374.632296 374.632296 206.923852 0 374.651259-167.708444 374.651259-374.632296a373.342815 373.342815 0 0 0-78.506666-228.769185z" p-id="2689"></path></svg>