<?xml version="1.0" standalone="no"?><!DOCTYPE svg PUBLIC "-//W3C//DTD SVG 1.1//EN" "http://www.w3.org/Graphics/SVG/1.1/DTD/svg11.dtd"><svg t="1592986295575" class="icon" viewBox="0 0 1024 1024" version="1.1" xmlns="http://www.w3.org/2000/svg" p-id="2810" xmlns:xlink="http://www.w3.org/1999/xlink" width="200" height="200"><defs><style type="text/css"></style></defs><path d="M694.856631 99.650581v76.489068c149.142785 67.900459 225.078245 205.900463 225.078245 365.208773 0 226.526223-182.829002 410.121681-409.333736 410.121681-226.483244 0-405.41345-183.595458-405.413449-410.121681 0-158.965501 99.628068-296.752658 227.464595-364.783077V100.031251C140.895961 172.963307 36.347836 343.094102 36.347836 541.325909c0 264.751826 212.44553 479.32481 477.172797 479.32481 264.706801 0 476.724589-214.572984 476.724589-479.32481 0-198.551078-103.632265-368.936677-295.388591-441.675328zM545.715893 404.818909c0 23.521716-19.091824 42.609447-42.61354 42.609447-23.52274 0-42.61354-19.088754-42.61354-42.609447V42.61354C460.488813 19.091824 479.579613 0 503.102353 0c23.521716 0 42.61354 19.091824 42.61354 42.61354v362.205369z" fill="#060001" p-id="2811"></path></svg>